<svg version="1.1" id="Layer_1" xmlns="http://www.w3.org/2000/svg" xmlns:xlink="http://www.w3.org/1999/xlink" x="0px" y="0px"
	 width="100%" viewBox="0 0 280 56" enable-background="new 0 0 280 56" xml:space="preserve">
<path fill="#000000" opacity="1.000000" stroke="none" 
	d="
M1.000000,27.000000 
	C1.000000,18.406929 1.000000,9.813859 1.000000,1.000000 
	C9.352930,1.000000 17.707798,1.000000 26.866550,1.226985 
	C21.779079,6.764073 15.887726,12.074177 9.996372,17.384281 
	C10.684870,17.554207 11.373366,17.724131 12.061864,17.894056 
	C14.109119,20.241642 16.156376,22.589226 18.867805,25.698420 
	C22.255499,22.038776 25.605131,18.420250 29.380177,14.342160 
	C32.888172,18.085016 36.135872,21.550150 38.715538,24.302526 
	C41.324100,21.952011 43.635578,19.869192 46.394871,17.382856 
	C41.819572,12.975011 37.235470,8.636271 32.765827,4.182662 
	C31.940025,3.359823 31.576754,2.072786 31.000000,1.000000 
	C114.333336,1.000000 197.666672,1.000000 281.000000,1.000000 
	C281.000000,5.060486 281.000000,9.053581 280.679108,13.875206 
	C279.543915,14.153408 278.737640,13.139572 277.914062,13.125336 
	C270.667053,13.000072 263.416962,13.052749 256.388062,13.052749 
	C256.388062,24.107153 256.388062,34.497684 256.388062,45.000000 
	C264.850372,45.000000 272.925171,45.000000 281.000000,45.000000 
	C281.000000,48.993313 281.000000,52.986622 281.000000,57.000000 
	C197.979111,57.000000 114.958214,57.000000 31.133278,56.773151 
	C36.010918,51.500214 41.692593,46.454124 47.374271,41.408035 
	C46.824699,40.999283 46.275127,40.590530 45.725559,40.181778 
	C43.553406,37.942905 41.381256,35.704033 38.579369,32.816082 
	C35.641354,36.042942 32.422165,39.578621 28.084438,44.342808 
	C24.775055,40.091125 21.664095,36.094368 18.597061,32.154041 
	C9.314452,40.826244 10.835050,39.040745 17.195330,45.674671 
	C19.837729,48.430759 22.642094,51.033062 25.246220,53.823437 
	C26.046526,54.680973 26.427183,55.930157 27.000000,57.000000 
	C18.406929,57.000000 9.813859,57.000000 1.000000,57.000000 
	C1.000000,48.647072 1.000000,40.292202 1.224246,31.133614 
	C3.490380,32.159584 5.532268,33.989269 6.802095,35.127129 
	C9.281950,32.839367 11.564438,30.733683 13.835438,28.638596 
	C8.420352,22.458416 8.424469,22.463892 2.020349,27.278870 
	C1.847710,27.408667 1.347471,27.102737 1.000000,27.000000 
M91.994850,15.529446 
	C84.788185,11.280730 76.991844,13.568819 69.260056,12.996386 
	C69.260056,23.868778 69.260056,34.244263 69.260056,44.995750 
	C74.962822,44.995750 80.490143,45.569321 85.847168,44.858856 
	C93.530685,43.839844 96.743965,40.849998 95.848343,34.405376 
	C95.525986,32.085762 93.489159,30.004414 92.198730,27.751455 
	C94.682663,24.059370 94.999023,20.131586 91.994850,15.529446 
M127.933922,16.410711 
	C125.739586,12.194170 122.128708,12.612042 118.260208,13.330090 
	C118.260208,23.879021 118.260208,34.266697 118.260208,44.709003 
	C120.915474,44.709003 123.304169,44.709003 126.224365,44.709003 
	C126.224365,38.783531 126.224365,33.134853 126.224365,26.874023 
	C130.281647,31.976765 134.313675,36.120815 137.193130,40.951843 
	C139.656784,45.085251 142.597397,45.578163 147.000351,44.574715 
	C147.000351,36.337223 147.001358,28.058729 147.000046,19.780235 
	C146.998886,12.470510 146.939636,12.422286 138.876205,13.540520 
	C138.876205,18.798401 138.876205,24.148314 138.876205,29.498228 
	C138.546204,29.606058 138.216217,29.713888 137.886215,29.821720 
	C134.738678,25.538712 131.591125,21.255703 127.933922,16.410711 
M207.565460,30.014547 
	C204.295868,25.755619 200.561768,21.765512 197.895142,17.157640 
	C195.513046,13.041415 192.538589,12.377175 188.329559,13.313088 
	C188.329559,23.807171 188.329559,34.337605 188.329559,44.851013 
	C195.999176,45.172802 195.999329,45.172802 196.000183,37.787842 
	C196.000580,34.421997 196.000259,31.056154 196.000259,26.570093 
	C200.006622,32.062328 203.203857,36.520634 206.484329,40.916836 
	C208.782166,43.996174 211.353104,46.572826 215.712189,44.469006 
	C215.712189,34.047909 215.712189,23.656796 215.712189,13.323397 
	C213.363647,13.323397 211.309143,13.323397 209.459702,13.323397 
	C209.005661,19.276243 208.577225,24.893497 207.565460,30.014547 
M155.067032,33.580807 
	C153.614624,37.145214 152.162216,40.709621 150.505936,44.774357 
	C154.162811,44.599888 158.135452,46.918850 159.293198,42.114864 
	C160.237091,38.198174 162.483017,37.755871 165.736465,37.965336 
	C168.369720,38.134872 171.022583,37.999722 173.303314,37.999722 
	C174.469101,40.589710 175.449936,42.768833 176.295868,44.648212 
	C179.088242,44.648212 181.460693,44.648212 184.080780,44.648212 
	C181.940506,39.663212 179.950363,35.082138 178.005112,30.482084 
	C175.989777,25.716391 173.931335,20.965796 172.065598,16.141363 
	C171.201569,13.907130 170.023148,12.306570 167.491745,13.064222 
	C165.841385,13.558183 163.581711,14.280732 162.961609,15.562189 
	C160.218948,21.230106 157.971298,27.137547 155.067032,33.580807 
M242.312347,20.801125 
	C243.676132,21.550457 245.039917,22.299788 246.403702,23.049118 
	C246.082672,22.577511 245.761627,22.105904 245.440598,21.634296 
	C247.449081,20.467413 249.457550,19.300529 251.420761,18.159954 
	C244.454971,10.588077 230.728500,11.648406 225.703613,17.814362 
	C220.343094,24.392206 220.870697,36.298054 226.725464,41.212959 
	C233.798187,47.150307 245.124237,46.237461 250.722107,39.180531 
	C249.199875,37.727036 247.670425,36.266636 246.029556,34.699852 
	C242.375000,38.186752 238.498825,39.168861 234.137512,37.032902 
	C229.973572,34.993618 229.730438,31.214935 230.018600,27.303226 
	C230.422699,21.817646 234.054367,19.662483 242.312347,20.801125 
M110.000069,31.491285 
	C110.000069,25.410065 110.000069,19.328842 110.000069,13.319986 
	C107.362480,13.319986 105.311844,13.319986 103.290627,13.319986 
	C103.290627,24.007946 103.290627,34.373890 103.290627,44.679169 
	C105.637520,44.679169 107.687996,44.679169 110.000069,44.679169 
	C110.000069,40.403950 110.000069,36.445530 110.000069,31.491285 
M33.251881,26.041754 
	C27.502060,21.902578 26.449884,22.219913 22.426989,28.872444 
	C24.644407,31.169374 26.756428,33.357128 28.789305,35.462898 
	C31.069473,33.261925 33.448563,30.965469 35.913795,28.585861 
	C35.174133,27.783228 34.527653,27.081707 33.251881,26.041754 
M56.924664,29.373537 
	C54.888077,26.881926 52.851490,24.390312 51.489487,22.724003 
	C48.772705,24.980253 46.287399,27.044270 43.828938,29.085989 
	C51.822773,37.820877 50.187222,35.991665 56.924664,29.373537 
z"/>
<path fill="#F0B90B" opacity="1.000000" stroke="none" 
	d="
M281.000000,44.562500 
	C272.925171,45.000000 264.850372,45.000000 256.388062,45.000000 
	C256.388062,34.497684 256.388062,24.107153 256.388062,13.052749 
	C263.416962,13.052749 270.667053,13.000072 277.914062,13.125336 
	C278.737640,13.139572 279.543915,14.153408 280.679108,14.351868 
	C281.000000,15.714358 281.000000,17.428717 280.583557,19.321522 
	C274.572815,19.763142 268.978577,20.026312 263.250061,20.295799 
	C263.250061,21.843550 263.250061,23.235107 263.250061,24.557878 
	C263.789856,24.744507 264.091187,24.935383 264.395508,24.940231 
	C266.894440,24.980036 269.393829,24.993515 271.893158,24.999348 
	C278.425201,25.014591 278.631775,25.264708 277.289948,32.194332 
	C272.632080,32.194332 267.878021,32.194332 263.190247,32.194332 
	C263.190247,34.284515 263.190247,35.907223 263.190247,38.000000 
	C269.246399,38.000000 275.123199,38.000000 281.000000,38.000000 
	C281.000000,40.041668 281.000000,42.083332 281.000000,44.562500 
z"/>
<path fill="#F0B90B" opacity="1.000000" stroke="none" 
	d="
M30.600004,1.000000 
	C31.576754,2.072786 31.940025,3.359823 32.765827,4.182662 
	C37.235470,8.636271 41.819572,12.975011 46.394871,17.382856 
	C43.635578,19.869192 41.324100,21.952011 38.715538,24.302526 
	C36.135872,21.550150 32.888172,18.085016 29.380177,14.342160 
	C25.605131,18.420250 22.255499,22.038776 18.867805,25.698420 
	C16.156376,22.589226 14.109119,20.241642 12.061864,17.894056 
	C11.373366,17.724131 10.684870,17.554207 9.996372,17.384281 
	C15.887726,12.074177 21.779079,6.764073 27.335217,1.226985 
	C28.066669,1.000000 29.133339,1.000000 30.600004,1.000000 
z"/>
<path fill="#F0B90B" opacity="1.000000" stroke="none" 
	d="
M27.399996,57.000000 
	C26.427183,55.930157 26.046526,54.680973 25.246220,53.823437 
	C22.642094,51.033062 19.837729,48.430759 17.195330,45.674671 
	C10.835050,39.040745 9.314452,40.826244 18.597061,32.154041 
	C21.664095,36.094368 24.775055,40.091125 28.084438,44.342808 
	C32.422165,39.578621 35.641354,36.042942 38.579369,32.816082 
	C41.381256,35.704033 43.553406,37.942905 45.725559,40.181778 
	C46.275127,40.590530 46.824699,40.999283 47.374271,41.408035 
	C41.692593,46.454124 36.010918,51.500214 30.664619,56.773151 
	C29.933331,57.000000 28.866661,57.000000 27.399996,57.000000 
z"/>
<path fill="#000000" opacity="1.000000" stroke="none" 
	d="
M281.000000,37.532059 
	C275.123199,38.000000 269.246399,38.000000 263.190247,38.000000 
	C263.190247,35.907223 263.190247,34.284515 263.190247,32.194332 
	C267.878021,32.194332 272.632080,32.194332 277.289948,32.194332 
	C278.631775,25.264708 278.425201,25.014591 271.893158,24.999348 
	C269.393829,24.993515 266.894440,24.980036 264.395508,24.940231 
	C264.091187,24.935383 263.789856,24.744507 263.250061,24.557878 
	C263.250061,23.235107 263.250061,21.843550 263.250061,20.295799 
	C268.978577,20.026312 274.572815,19.763142 280.583557,19.749985 
	C281.000000,25.688040 281.000000,31.376081 281.000000,37.532059 
z"/>
<path fill="#F0B90B" opacity="1.000000" stroke="none" 
	d="
M1.000000,27.399996 
	C1.347471,27.102737 1.847710,27.408667 2.020349,27.278870 
	C8.424469,22.463892 8.420352,22.458416 13.835438,28.638596 
	C11.564438,30.733683 9.281950,32.839367 6.802095,35.127129 
	C5.532268,33.989269 3.490380,32.159584 1.224246,30.664948 
	C1.000000,29.933331 1.000000,28.866661 1.000000,27.399996 
z"/>
<path fill="#F0B90B" opacity="1.000000" stroke="none" 
	d="
M92.304031,15.808124 
	C94.999023,20.131586 94.682663,24.059370 92.198730,27.751455 
	C93.489159,30.004414 95.525986,32.085762 95.848343,34.405376 
	C96.743965,40.849998 93.530685,43.839844 85.847168,44.858856 
	C80.490143,45.569321 74.962822,44.995750 69.260056,44.995750 
	C69.260056,34.244263 69.260056,23.868778 69.260056,12.996386 
	C76.991844,13.568819 84.788185,11.280730 92.304031,15.808124 
M88.305328,36.122707 
	C87.136925,31.373997 86.433578,31.139837 77.244217,32.500103 
	C77.244217,34.197678 77.244217,35.911526 77.244217,38.519138 
	C80.995216,37.892101 84.392075,37.324268 88.305328,36.122707 
M83.709396,25.769770 
	C84.848618,24.979094 85.987839,24.188417 87.189819,23.354181 
	C84.680687,18.471397 80.802116,20.214334 77.271423,20.205784 
	C77.271423,22.277971 77.271423,24.001715 77.271423,25.970533 
	C79.319832,25.970533 81.101440,25.970533 83.709396,25.769770 
z"/>
<path fill="#F0B90B" opacity="1.000000" stroke="none" 
	d="
M128.188751,16.691704 
	C131.591125,21.255703 134.738678,25.538712 137.886215,29.821720 
	C138.216217,29.713888 138.546204,29.606058 138.876205,29.498228 
	C138.876205,24.148314 138.876205,18.798401 138.876205,13.540520 
	C146.939636,12.422286 146.998886,12.470510 147.000046,19.780235 
	C147.001358,28.058729 147.000351,36.337223 147.000351,44.574715 
	C142.597397,45.578163 139.656784,45.085251 137.193130,40.951843 
	C134.313675,36.120815 130.281647,31.976765 126.224365,26.874023 
	C126.224365,33.134853 126.224365,38.783531 126.224365,44.709003 
	C123.304169,44.709003 120.915474,44.709003 118.260208,44.709003 
	C118.260208,34.266697 118.260208,23.879021 118.260208,13.330090 
	C122.128708,12.612042 125.739586,12.194170 128.188751,16.691704 
z"/>
<path fill="#F0B90B" opacity="1.000000" stroke="none" 
	d="
M207.857117,30.262650 
	C208.577225,24.893497 209.005661,19.276243 209.459702,13.323397 
	C211.309143,13.323397 213.363647,13.323397 215.712189,13.323397 
	C215.712189,23.656796 215.712189,34.047909 215.712189,44.469006 
	C211.353104,46.572826 208.782166,43.996174 206.484329,40.916836 
	C203.203857,36.520634 200.006622,32.062328 196.000259,26.570093 
	C196.000259,31.056154 196.000580,34.421997 196.000183,37.787842 
	C195.999329,45.172802 195.999176,45.172802 188.329559,44.851013 
	C188.329559,34.337605 188.329559,23.807171 188.329559,13.313088 
	C192.538589,12.377175 195.513046,13.041415 197.895142,17.157640 
	C200.561768,21.765512 204.295868,25.755619 207.857117,30.262650 
z"/>
<path fill="#F0B90B" opacity="1.000000" stroke="none" 
	d="
M155.305740,33.269547 
	C157.971298,27.137547 160.218948,21.230106 162.961609,15.562189 
	C163.581711,14.280732 165.841385,13.558183 167.491745,13.064222 
	C170.023148,12.306570 171.201569,13.907130 172.065598,16.141363 
	C173.931335,20.965796 175.989777,25.716391 178.005112,30.482084 
	C179.950363,35.082138 181.940506,39.663212 184.080780,44.648212 
	C181.460693,44.648212 179.088242,44.648212 176.295868,44.648212 
	C175.449936,42.768833 174.469101,40.589710 173.303314,37.999722 
	C171.022583,37.999722 168.369720,38.134872 165.736465,37.965336 
	C162.483017,37.755871 160.237091,38.198174 159.293198,42.114864 
	C158.135452,46.918850 154.162811,44.599888 150.505936,44.774357 
	C152.162216,40.709621 153.614624,37.145214 155.305740,33.269547 
M169.823227,30.571590 
	C169.158051,28.453384 168.492874,26.335180 167.504242,23.186935 
	C165.937744,26.324503 164.904617,28.393747 163.632751,30.941179 
	C165.870544,30.941179 167.483734,30.941179 169.823227,30.571590 
z"/>
<path fill="#F0B90B" opacity="1.000000" stroke="none" 
	d="
M242.019440,20.521687 
	C234.054367,19.662483 230.422699,21.817646 230.018600,27.303226 
	C229.730438,31.214935 229.973572,34.993618 234.137512,37.032902 
	C238.498825,39.168861 242.375000,38.186752 246.029556,34.699852 
	C247.670425,36.266636 249.199875,37.727036 250.722107,39.180531 
	C245.124237,46.237461 233.798187,47.150307 226.725464,41.212959 
	C220.870697,36.298054 220.343094,24.392206 225.703613,17.814362 
	C230.728500,11.648406 244.454971,10.588077 251.420761,18.159954 
	C249.457550,19.300529 247.449081,20.467413 245.440598,21.634296 
	C245.761627,22.105904 246.082672,22.577511 246.403702,23.049118 
	C245.039917,22.299788 243.676132,21.550457 242.019440,20.521687 
z"/>
<path fill="#F0B90B" opacity="1.000000" stroke="none" 
	d="
M110.000069,31.989201 
	C110.000069,36.445530 110.000069,40.403950 110.000069,44.679169 
	C107.687996,44.679169 105.637520,44.679169 103.290627,44.679169 
	C103.290627,34.373890 103.290627,24.007946 103.290627,13.319986 
	C105.311844,13.319986 107.362480,13.319986 110.000069,13.319986 
	C110.000069,19.328842 110.000069,25.410065 110.000069,31.989201 
z"/>
<path fill="#F0B90B" opacity="1.000000" stroke="none" 
	d="
M33.566528,26.210972 
	C34.527653,27.081707 35.174133,27.783228 35.913795,28.585861 
	C33.448563,30.965469 31.069473,33.261925 28.789305,35.462898 
	C26.756428,33.357128 24.644407,31.169374 22.426989,28.872444 
	C26.449884,22.219913 27.502060,21.902578 33.566528,26.210972 
z"/>
<path fill="#F0B90B" opacity="1.000000" stroke="none" 
	d="
M56.722092,29.670198 
	C50.187222,35.991665 51.822773,37.820877 43.828938,29.085989 
	C46.287399,27.044270 48.772705,24.980253 51.489487,22.724003 
	C52.851490,24.390312 54.888077,26.881926 56.722092,29.670198 
z"/>
<path fill="#000000" opacity="1.000000" stroke="none" 
	d="
M88.047134,36.439568 
	C84.392075,37.324268 80.995216,37.892101 77.244217,38.519138 
	C77.244217,35.911526 77.244217,34.197678 77.244217,32.500103 
	C86.433578,31.139837 87.136925,31.373997 88.047134,36.439568 
z"/>
<path fill="#000000" opacity="1.000000" stroke="none" 
	d="
M83.296219,25.870152 
	C81.101440,25.970533 79.319832,25.970533 77.271423,25.970533 
	C77.271423,24.001715 77.271423,22.277971 77.271423,20.205784 
	C80.802116,20.214334 84.680687,18.471397 87.189819,23.354181 
	C85.987839,24.188417 84.848618,24.979094 83.296219,25.870152 
z"/>
<path fill="#000000" opacity="1.000000" stroke="none" 
	d="
M169.460083,30.756386 
	C167.483734,30.941179 165.870544,30.941179 163.632751,30.941179 
	C164.904617,28.393747 165.937744,26.324503 167.504242,23.186935 
	C168.492874,26.335180 169.158051,28.453384 169.460083,30.756386 
z"/>
</svg>